<svg width="1800" height="1800" viewBox="0 0 1800 1800" fill="none" xmlns="http://www.w3.org/2000/svg">
<g clip-path="url(#clip0_7_147)">
<path d="M371.123 1089.55L70.823 982.3V849.7L371.123 742.45V846.45L144.598 921.85V908.525L371.123 985.55V1089.55ZM1431.13 1089.55V985.55L1657.65 908.525V921.85L1431.13 846.45V742.45L1731.43 849.7V982.3L1431.13 1089.55Z" fill="#9C85BD"/>
<path d="M1184.61 1196.76C1177.05 1196.76 1168.41 1196.46 1158.69 1195.86C1149.09 1195.38 1139.37 1194.66 1129.53 1193.7C1119.81 1192.86 1111.05 1191.9 1103.25 1190.82V933.777C1112.13 931.737 1121.91 929.937 1132.59 928.377C1143.27 926.697 1154.13 925.437 1165.17 924.597C1176.33 923.637 1186.89 923.157 1196.85 923.157C1225.05 923.157 1248.09 925.977 1265.97 931.617C1283.85 937.257 1296.99 945.717 1305.39 956.997C1313.79 968.277 1317.99 982.437 1317.99 999.477C1317.99 1009.08 1316.07 1017.84 1312.23 1025.76C1308.51 1033.68 1303.35 1040.4 1296.75 1045.92C1290.15 1051.32 1282.53 1055.04 1273.89 1057.08V1054.92C1288.29 1057.32 1300.41 1063.5 1310.25 1073.46C1320.21 1083.42 1325.19 1097.88 1325.19 1116.84C1325.19 1129.44 1322.67 1140.72 1317.63 1150.68C1312.71 1160.52 1304.73 1168.86 1293.69 1175.7C1282.65 1182.54 1268.19 1187.76 1250.31 1191.36C1232.43 1194.96 1210.53 1196.76 1184.61 1196.76ZM1206.57 1140.96C1218.69 1140.96 1228.11 1139.94 1234.83 1137.9C1241.67 1135.86 1246.47 1132.86 1249.23 1128.9C1252.11 1124.82 1253.55 1119.66 1253.55 1113.42C1253.55 1103.82 1250.61 1096.86 1244.73 1092.54C1238.85 1088.22 1228.65 1086.06 1214.13 1086.06H1171.83V1028.64H1208.19C1217.43 1028.64 1224.75 1027.74 1230.15 1025.94C1235.55 1024.02 1239.39 1021.26 1241.67 1017.66C1243.95 1013.94 1245.09 1009.32 1245.09 1003.8C1245.09 995.157 1242.33 988.857 1236.81 984.897C1231.41 980.937 1221.69 978.957 1207.65 978.957C1202.85 978.957 1198.05 979.197 1193.25 979.677C1188.57 980.157 1183.95 980.817 1179.39 981.657V1139.88C1184.91 1140.24 1189.77 1140.54 1193.97 1140.78C1198.17 1140.9 1202.37 1140.96 1206.57 1140.96Z" fill="#E64088"/>
<path d="M786.76 1193.16L866.32 926.757H981.16L1060.72 1193.16H984.4L919.78 960.057H926.62L862.36 1193.16H786.76ZM853.18 1132.14L869.56 1070.94H977.56L993.76 1132.14H853.18Z" fill="#E64088"/>
<path d="M530.713 1193.16V926.757H608.833V1128.9H725.473V1193.16H530.713Z" fill="#E64088"/>
<path d="M1188.16 903.5C1180.81 903.5 1172.41 903.208 1162.96 902.625C1153.62 902.158 1144.17 901.458 1134.61 900.525C1125.16 899.708 1116.64 898.775 1109.06 897.725V647.825C1117.69 645.842 1127.2 644.092 1137.58 642.575C1147.96 640.942 1158.52 639.717 1169.26 638.9C1180.11 637.967 1190.37 637.5 1200.06 637.5C1227.47 637.5 1249.87 640.242 1267.26 645.725C1284.64 651.208 1297.41 659.433 1305.58 670.4C1313.75 681.367 1317.83 695.133 1317.83 711.7C1317.83 721.033 1315.96 729.55 1312.23 737.25C1308.61 744.95 1303.6 751.483 1297.18 756.85C1290.76 762.1 1283.36 765.717 1274.96 767.7V765.6C1288.96 767.933 1300.74 773.942 1310.31 783.625C1319.99 793.308 1324.83 807.367 1324.83 825.8C1324.83 838.05 1322.38 849.017 1317.48 858.7C1312.7 868.267 1304.94 876.375 1294.21 883.025C1283.47 889.675 1269.41 894.75 1252.03 898.25C1234.65 901.75 1213.36 903.5 1188.16 903.5ZM1209.51 849.25C1221.29 849.25 1230.45 848.258 1236.98 846.275C1243.63 844.292 1248.3 841.375 1250.98 837.525C1253.78 833.558 1255.18 828.542 1255.18 822.475C1255.18 813.142 1252.32 806.375 1246.61 802.175C1240.89 797.975 1230.97 795.875 1216.86 795.875H1175.73V740.05H1211.08C1220.06 740.05 1227.18 739.175 1232.43 737.425C1237.68 735.558 1241.41 732.875 1243.63 729.375C1245.85 725.758 1246.96 721.267 1246.96 715.9C1246.96 707.5 1244.27 701.375 1238.91 697.525C1233.66 693.675 1224.21 691.75 1210.56 691.75C1205.89 691.75 1201.22 691.983 1196.56 692.45C1192.01 692.917 1187.51 693.558 1183.08 694.375V848.2C1188.45 848.55 1193.17 848.842 1197.26 849.075C1201.34 849.192 1205.42 849.25 1209.51 849.25Z" fill="#38B6E8"/>
<path d="M887.682 900V641H1084.03V700.85H962.582V840.15H1085.78V900H887.682ZM931.957 797.8V737.95H1065.66V797.8H931.957Z" fill="#38B6E8"/>
<path d="M529.318 900L464.043 641H540.518L593.018 867.275H573.768L631.518 641H714.118L768.543 867.275H751.218L805.468 641H877.043L811.768 900H714.818L662.143 686.85H682.268L626.268 900H529.318Z" fill="#38B6E8"/>
</g>
<defs>
<clipPath id="clip0_7_147">
<rect width="1800" height="1800" fill="white"/>
</clipPath>
</defs>
</svg>
